<?xml version="1.0" encoding="UTF-8" ?>
<svg version="1.1" width="32" height="32" xmlns="http://www.w3.org/2000/svg" shape-rendering="crispEdges">
<rect x="15" y="0" width="2" height="4" fill="#C2C3C7" />
<rect x="11" y="2" width="4" height="2" fill="#C2C3C7" />
<rect x="17" y="2" width="4" height="2" fill="#C2C3C7" />
<rect x="9" y="4" width="14" height="7" fill="#FF004D" />
<rect x="7" y="6" width="2" height="18" fill="#FF004D" />
<rect x="23" y="6" width="2" height="18" fill="#FF004D" />
<rect x="5" y="8" width="2" height="14" fill="#FF004D" />
<rect x="25" y="8" width="2" height="14" fill="#FF004D" />
<rect x="9" y="11" width="4" height="2" fill="#FF004D" />
<rect x="13" y="11" width="6" height="8" fill="#FFEC27" />
<rect x="19" y="11" width="4" height="2" fill="#FF004D" />
<rect x="9" y="13" width="2" height="13" fill="#FF004D" />
<rect x="11" y="13" width="2" height="4" fill="#FFEC27" />
<rect x="19" y="13" width="2" height="4" fill="#FFEC27" />
<rect x="21" y="13" width="2" height="13" fill="#FF004D" />
<rect x="11" y="17" width="2" height="9" fill="#FF004D" />
<rect x="19" y="17" width="2" height="9" fill="#FF004D" />
<rect x="13" y="19" width="6" height="7" fill="#FF004D" />
<rect x="11" y="26" width="10" height="2" fill="#C2C3C7" />
<rect x="15" y="28" width="2" height="4" fill="#C2C3C7" />
<rect x="13" y="30" width="2" height="2" fill="#C2C3C7" />
<rect x="17" y="30" width="2" height="2" fill="#C2C3C7" />
</svg>